<svg xmlns="http://www.w3.org/2000/svg" width="690" height="859" viewBox="0 0 690 859" fill="none"><path fill-rule="evenodd" clip-rule="evenodd" d="M33.6521 135.5C33.6521 54.4598 116.435 10 204.848 10C289.883 10 367.598 49.9575 367.598 123.682C367.598 143.989 359.7 167.619 340.335 183.866C337.159 186.53 333.675 188.996 329.867 191.216C334.265 192.366 338.364 193.669 342.183 195.109C366.537 204.288 379.514 219.002 386.4 234.878L334.341 298.826L334.336 298.832C317.25 319.886 305.595 336.609 298.283 352.516C290.829 368.729 288.05 383.724 288.05 401.059C288.05 401.542 288.052 402.024 288.056 402.506C261.174 410.696 231.522 414.64 202.033 414.64C105.172 414.64 10 372.432 10 276.196L127.697 270.005C127.697 271.304 127.766 272.588 127.9 273.856C130.847 301.703 165.554 321.781 205.412 321.781C244.832 321.781 274.115 306.023 274.115 283.512C274.115 253.685 262.289 245.243 181.196 245.243V164.765C230.19 164.765 248.774 150.133 248.774 130.435C248.774 109.05 226.811 102.859 202.033 102.859C174.102 102.859 152.821 119.472 151.381 141.712C151.369 141.892 151.359 142.073 151.35 142.254L151.349 142.254L33.6521 135.5ZM350.88 187.844C372.236 197.093 385.507 210.787 393.4 226.28L467.807 134.88H631.542L529.699 253.688C573.737 257.184 611.304 271.006 639.088 293.397C671.362 319.407 689.829 356.543 689.829 400.495C689.829 446.654 669.187 485.646 633.587 512.832C598.19 539.864 548.452 554.948 490.069 554.948C482.715 554.948 475.506 554.728 468.452 554.293H271.688L269.65 561.876C285.265 558.459 300.724 556.864 315.565 556.864C368.253 556.864 412.559 571.008 443.909 596.326C475.434 621.786 493.222 658.081 493.222 700.596C493.222 740.989 476.27 780.836 442.445 810.464C408.628 840.083 358.552 859 292.909 859C177.554 859 104.964 801.051 93.8314 724.034L92.4016 714.142L228.452 694.403L105.789 668.172L160.402 438.932H292.879C290.649 430.571 289.173 421.854 288.489 412.814C261.139 420.844 231.38 424.64 202.033 424.64C152.36 424.64 102.332 413.85 64.3691 389.971C26.0009 365.837 0 328.243 0 276.196V266.708L137.697 259.466V270.005C137.697 280.475 143.975 290.657 156.366 298.687C168.731 306.7 186.205 311.781 205.412 311.781C223.944 311.781 239.339 308.054 249.718 302.331C260.137 296.586 264.115 289.798 264.115 283.512C264.115 276.485 263.371 272.185 261.973 269.251C260.789 266.765 258.75 264.447 253.993 262.325C248.891 260.05 241.053 258.197 228.926 256.978C216.909 255.77 201.354 255.243 181.196 255.243H171.196V154.765H181.196C204.988 154.765 219.847 151.163 228.417 146.292C236.297 141.815 238.774 136.422 238.774 130.435C238.774 126.894 237.897 124.504 236.693 122.738C235.437 120.897 233.415 119.141 230.284 117.602C223.754 114.393 213.904 112.859 202.033 112.859C177.321 112.859 162.112 127.262 161.337 142.753L160.834 152.814L23.6521 144.943V135.5C23.6521 91.053 46.5414 56.7963 80.5335 34.0491C114.278 11.468 159.131 0 204.848 0C248.758 0 291.444 10.2889 323.495 30.7675C355.803 51.4098 377.598 82.7252 377.598 123.682C377.598 144.862 369.893 169.626 350.88 187.844ZM295.965 448.932H168.299L117.889 660.533L226.073 683.668C249.862 660.533 266.288 653.198 290.077 653.198C331.991 653.198 356.913 671.254 356.913 700.596C356.913 733.324 330.292 755.895 291.776 755.895C255.211 755.895 226.304 737.079 221.046 710.067C220.765 708.626 220.552 707.161 220.409 705.675L103.729 722.603L103.748 722.739C104.224 726.007 104.822 729.244 105.54 732.445C120.305 798.264 186.03 849 292.909 849C420.351 849 483.222 775.645 483.222 700.596C483.222 621.599 417.518 566.864 315.565 566.864C299.829 566.864 283.337 568.748 266.706 572.823C262.984 573.736 259.255 574.757 255.526 575.893L264.022 544.293H407.974C383.464 537.298 361.998 526.959 344.21 513.582C321.47 496.483 304.983 474.576 295.965 448.932ZM462.265 543.821C383.131 537.242 327.097 502.237 306.619 448.932H461.82C461.968 448.966 462.116 449 462.265 449.034V543.821ZM472.265 544.494C478.085 544.795 484.021 544.948 490.069 544.948C603.586 544.948 679.829 486.264 679.829 400.495C679.829 322.137 617.153 268.104 521.566 263.176C517.343 262.958 513.055 262.836 508.706 262.812L609.798 144.88H472.561L397.833 236.673C403.436 252.628 404.065 268.799 404.065 281.261C404.065 331.6 377.378 367.89 338.908 391.122C326.481 398.626 312.796 404.8 298.303 409.714C298.905 419.914 300.576 429.669 303.259 438.932H438.297C425.922 430.178 419.474 417.167 419.474 400.495C419.474 367.203 444.323 348.017 490.069 348.017C534.685 348.017 558.97 366.638 558.97 400.495C558.97 433.222 534.685 451.843 490.069 451.843C483.729 451.843 477.791 451.486 472.265 450.782V544.494ZM472.265 440.695C477.632 441.443 483.559 441.843 490.069 441.843C511.196 441.843 525.979 437.403 535.246 430.445C544.085 423.808 548.97 414.099 548.97 400.495C548.97 386.212 544 376.236 535.185 369.51C525.944 362.46 511.202 358.017 490.069 358.017C468.388 358.017 453.176 362.594 443.621 369.768C434.487 376.626 429.474 386.625 429.474 400.495C429.474 414.007 434.426 423.704 443.529 430.377C448.466 433.996 454.919 436.936 462.999 438.932H472.265V440.695ZM342.101 305.133L390.254 245.983C393.571 258.295 394.065 270.696 394.065 281.261C394.065 341.362 352.993 379.747 298.061 399.213C298.45 368.041 308.867 346.086 342.101 305.133ZM230.362 704.714L229.368 694.413L233.044 690.837C244.552 679.646 253.69 672.868 262.329 668.807C270.785 664.833 279.327 663.198 290.077 663.198C309.774 663.198 324.195 667.465 333.405 674.035C342.235 680.333 346.913 689.146 346.913 700.596C346.913 714.047 341.531 725.075 332.317 732.894C322.979 740.819 309.126 745.895 291.776 745.895C255.996 745.895 232.498 726.837 230.362 704.714Z" fill="currentColor"></path></svg>